<?xml version="1.0" encoding="UTF-8" standalone="no"?>
<svg
   xmlns:dc="http://purl.org/dc/elements/1.1/"
   xmlns:cc="http://creativecommons.org/ns#"
   xmlns:rdf="http://www.w3.org/1999/02/22-rdf-syntax-ns#"
   xmlns:svg="http://www.w3.org/2000/svg"
   xmlns="http://www.w3.org/2000/svg"
   xmlns:sodipodi="http://sodipodi.sourceforge.net/DTD/sodipodi-0.dtd"
   xmlns:inkscape="http://www.inkscape.org/namespaces/inkscape"
   version="1.1"
   width="50"
   height="50"
   id="svg10"
   sodipodi:docname="Flag_of_the_Soviet_Union.svg"
   inkscape:version="0.92.2 (5c3e80d, 2017-08-06)">
  <metadata
     id="metadata16">
    <rdf:RDF>
      <cc:Work
         rdf:about="">
        <dc:format>image/svg+xml</dc:format>
        <dc:type
           rdf:resource="http://purl.org/dc/dcmitype/StillImage" />
        <dc:title></dc:title>
      </cc:Work>
    </rdf:RDF>
  </metadata>
  <defs
     id="defs14" />
  <sodipodi:namedview
     pagecolor="#ffffff"
     bordercolor="#666666"
     borderopacity="1"
     objecttolerance="10"
     gridtolerance="10"
     guidetolerance="10"
     inkscape:pageopacity="0"
     inkscape:pageshadow="2"
     inkscape:window-width="1920"
     inkscape:window-height="986"
     id="namedview12"
     showgrid="false"
     inkscape:zoom="0.65333333"
     inkscape:cx="736.55755"
     inkscape:cy="535.49637"
     inkscape:window-x="-11"
     inkscape:window-y="-11"
     inkscape:window-maximized="1"
     inkscape:current-layer="svg10" />
  <path
     d="M396.563 211.159l9.273 46.01-25.245 4.451-3.783-21.884c-42.772 7.871-76.02 13.993-117.321 21.59-11.536 2.25-16.577-15.323-3.52-18.105 42.915-6.998 73.157-12.561 117.982-20.015l-4.659-26.882z"
     fill="gold"
     fill-opacity="1"
     fill-rule="evenodd"
     stroke="none"
     id="path6"
     style="fill:#ffd700;fill-opacity:1" />
  <path
     d="M345.417 286.204c-82.16 11.33-104.533-128.501 40.893-116.655-136.475 31.534-81.089 109.278-35.984 101.653l2.121-.169c.233 1.986.47 3.972.701 5.957 3.434-.504 7.046 1.171 5.698 5.2 4.26 2.564 5.067 6.484 3.177 11.445 4.051 10.296 9.156 20.416 8.353 31.568-3.135 10.196-10.981 10.09-16.511 5.193-6.988-10.995-3.839-21.977-4-32.971-2.898-3.798-4.938-7.605-3.141-11.404"
     fill="gold"
     fill-opacity="1"
     fill-rule="evenodd"
     stroke="none"
     id="path8"
     style="fill:#ffd700;fill-opacity:1" />
</svg>
