<?xml version="1.0" encoding="iso-8859-1"?>
<!-- Generator: Adobe Illustrator 19.0.0, SVG Export Plug-In . SVG Version: 6.00 Build 0)  -->
<svg version="1.1" id="Layer_1" xmlns="http://www.w3.org/2000/svg" xmlns:xlink="http://www.w3.org/1999/xlink" x="0px" y="0px"
	 viewBox="0 0 512.001 512.001" style="enable-background:new 0 0 512.001 512.001;" xml:space="preserve">
<path style="fill:#F7931E;" d="M359.67,127.645c0,35.247-28.574,63.821-63.821,63.821c-35.247,0-63.821-28.574-63.821-63.821
	s63.821-87.754,63.821-87.754S359.67,92.398,359.67,127.645z"/>
<polygon style="fill:#FFFFFF;" points="351.692,167.533 295.849,135.623 240.006,159.556 232.028,127.645 295.849,103.713 
	359.67,135.623 "/>
<polygon style="fill:#998675;" points="416.652,303.153 239.337,303.153 239.337,215.693 337.466,215.399 337.467,255.287 
	414.569,255.287 "/>
<polygon style="fill:#C7B299;" points="423.491,358.996 216.073,358.996 216.424,303.153 423.491,303.153 "/>
<rect x="128.314" y="271.248" style="fill:#998675;" width="87.757" height="135.624"/>
<g>
	<rect x="81.03" y="223.381" style="fill:#C7B299;" width="47.294" height="183.481"/>
	<polygon style="fill:#C7B299;" points="168.515,326.613 168.515,406.809 88.319,406.809 88.319,374.522 39.369,374.522 
		39.369,406.863 39.369,422.817 39.369,502.626 216.424,502.626 216.424,430.795 216.424,406.863 216.424,326.613 	"/>
</g>
<polygon style="fill:#998675;" points="88.319,406.809 88.319,374.522 39.369,374.522 39.369,406.863 39.369,438.773 
	39.369,502.626 127.896,502.626 127.896,406.809 "/>
<rect x="40.565" y="470.685" style="fill:#FBB03B;" width="175.503" height="31.911"/>
<rect x="32.257" y="470.685" style="fill:#F7931E;" width="104.035" height="31.911"/>
<polygon style="fill:#C7B299;" points="471.358,502.594 216.073,502.594 216.073,358.996 423.49,358.996 423.491,303.153 
	471.358,303.153 471.358,358.996 "/>
<rect x="216.07" y="358.994" style="fill:#998675;" width="167.484" height="143.602"/>
<rect x="216.07" y="470.685" style="fill:#F7931E;" width="63.823" height="31.911"/>
<rect x="407.54" y="470.685" style="fill:#FBB03B;" width="71.364" height="31.911"/>
<path style="fill:#A67C52;" d="M279.895,502.594v-28.285c0-41.656,28.574-75.424,63.821-75.424l0,0
	c35.247,0,63.821,33.769,63.821,75.424v28.284"/>
<path style="fill:#8C6239;" d="M343.486,502.626h-63.531v-28.317c0-41.656,28.591-75.834,63.838-75.834h-0.306"/>
<rect x="72.697" y="199.447" style="fill:#FF1D25;" width="70.822" height="24.581"/>
<rect x="24.788" y="351.017" style="fill:#00A99D;" width="80.195" height="23.933"/>
<rect x="152.247" y="303.149" style="fill:#29ABE2;" width="79.779" height="23.933"/>
<rect x="407.019" y="279.226" style="fill:#F7931E;" width="80.289" height="23.933"/>
<g>
	<rect x="239.338" y="199.447" style="fill:#9E005D;" width="111.44" height="23.933"/>
	<path style="fill:#9E005D;" d="M104.386,311.131c0,22.03-17.859,39.888-39.888,39.888S24.61,333.161,24.61,311.131
		c0-22.03,39.888-55.843,39.888-55.843S104.386,289.101,104.386,311.131z"/>
</g>
<path style="fill:#FF1D25;" d="M232.028,263.265c0,22.03-17.859,39.888-39.888,39.888s-39.888-17.859-39.888-39.888
	s39.888-55.843,39.888-55.843S232.028,241.235,232.028,263.265z"/>
<path style="fill:#29ABE2;" d="M152.252,159.556c0,22.03-17.859,39.888-39.888,39.888s-39.888-17.859-39.888-39.888
	s39.888-55.843,39.888-55.843S152.252,137.526,152.252,159.556z"/>
<path style="fill:#00A99D;" d="M487.312,239.332c0,22.03-17.859,39.888-39.888,39.888c-22.03,0-39.888-17.859-39.888-39.888
	s39.888-55.843,39.888-55.843S487.312,217.303,487.312,239.332z"/>
<g>
	<path style="fill:#C7B299;" d="M487.312,247.31c0,17.623-17.859,31.911-39.888,31.911c-22.03,0-39.888-14.287-39.888-31.911"/>
	<path style="fill:#C7B299;" d="M232.028,271.243c0,17.623-17.859,31.91-39.888,31.91s-39.888-14.287-39.888-31.91"/>
	<path style="fill:#C7B299;" d="M104.386,319.108c0,17.623-17.859,31.91-39.888,31.91s-39.888-14.287-39.888-31.91"/>
	<path style="fill:#C7B299;" d="M152.252,167.533c0,17.623-17.859,31.911-39.888,31.911s-39.888-14.286-39.888-31.911"/>
</g>
<rect x="0.833" y="496.379" width="510.335" height="15.622"/>
<g>
	<rect x="184.138" y="351.61" style="fill:#FFFFFF;" width="15.622" height="46.867"/>
	<rect x="57.074" y="398.478" style="fill:#FFFFFF;" width="15.622" height="47.909"/>
</g>
<polygon points="143.611,216.215 88.523,215.566 88.339,231.188 119.564,231.554 119.564,279.746 135.187,279.746 135.187,231.739 
	143.427,231.836 "/>
<path d="M112.274,344.319H98.712c8.338-8.592,13.485-20.297,13.485-33.187c0-11.264-7.17-24.799-21.919-41.376
	c-6.905-7.761-13.737-14.184-17.581-17.652v-12.976h8.332v-15.622h-8.332v-8.332H57.075v8.332h-8.332v15.622h8.332v12.281
	c-3.641,3.251-10.953,10.028-18.356,18.348c-14.75,16.576-21.919,30.111-21.919,41.376c0,12.891,5.148,24.595,13.485,33.187H16.456
	v15.622h95.818C112.274,359.942,112.274,344.319,112.274,344.319z M96.552,312.032H81.029v15.622H91.98
	c-5.62,9.312-15.835,15.554-27.482,15.554s-21.862-6.241-27.482-15.554h35.681v-15.622H32.444c-0.008-0.3-0.023-0.599-0.023-0.901
	c0-11.887,17.969-32.402,32.045-45.378c3.679,3.418,8.92,8.522,14.141,14.388c11.419,12.833,17.968,24.128,17.968,30.99
	C96.575,311.432,96.561,311.731,96.552,312.032z"/>
<polygon points="151.851,319.323 151.851,334.945 160.183,334.945 160.183,399.518 135.187,399.518 135.187,383.896 
	119.564,383.896 119.564,399.518 95.61,399.518 95.61,383.896 104.983,383.896 104.983,368.273 24.788,368.273 24.788,383.896 
	32.078,383.896 32.078,485.963 47.701,485.963 47.701,383.896 79.987,383.896 79.987,415.141 175.805,415.141 175.805,334.945 
	207.05,334.945 207.05,485.963 222.673,485.963 222.673,334.945 232.046,334.945 232.046,319.323 "/>
<path d="M239.84,263.265c0-11.265-7.17-24.799-21.919-41.376c-7.272-8.174-14.457-14.857-18.16-18.173v-11.458h8.332v-15.622h-8.332
	v-8.332h-15.622v8.332h-8.332v15.622h8.332v11.801c-3.807,3.427-10.759,9.942-17.776,17.829
	c-14.75,16.577-21.919,30.11-21.919,41.376c0,12.352,4.721,23.622,12.451,32.102h-13.373v15.622h95.818v-15.622h-11.948
	C235.119,286.887,239.84,275.617,239.84,263.265z M192.108,217.887c3.679,3.418,8.92,8.521,14.141,14.387
	c11.419,12.833,17.968,24.129,17.968,30.991c0,0.287-0.015,0.572-0.022,0.857h-16.104v15.622h11.555
	c-5.615,9.336-15.842,15.598-27.507,15.598c-11.665,0-21.893-6.26-27.507-15.598h35.127v-15.622h-39.675
	c-0.007-0.285-0.022-0.57-0.022-0.857C160.064,251.378,178.033,230.862,192.108,217.887z"/>
<path d="M481.701,272.455c8.301-8.587,13.424-20.264,13.424-33.123c0-11.265-7.17-24.799-21.919-41.376
	c-7.35-8.261-14.61-15-18.277-18.277v-12.417h8.332V151.64h-8.332v-8.332h-15.622v8.332h-8.332v15.622h8.332v12.97
	c-3.83,3.452-10.71,9.912-17.66,17.724c-14.75,16.577-21.919,30.11-21.919,41.376c0,12.858,5.123,24.536,13.424,33.123H399.73
	v15.622h95.818v-15.622L481.701,272.455L481.701,272.455z M447.425,271.41c-12.102,0-22.658-6.74-28.119-16.66h35.621v-15.622
	h-39.57c0.201-11.916,18.039-32.271,32.035-45.173c3.679,3.418,8.92,8.521,14.141,14.387c11.31,12.71,17.833,23.906,17.956,30.786
	H463.26v15.622h12.285C470.083,264.67,459.527,271.41,447.425,271.41z"/>
<path d="M147.039,192.26c8.064-8.547,13.024-20.053,13.024-32.703c0-11.264-7.17-24.799-21.919-41.376
	c-7.552-8.488-15.018-15.378-18.579-18.547V88.11h8.332V72.487h-8.332v-8.332h-15.622v8.332h-7.29V88.11h7.29v12.621
	c-3.881,3.511-10.581,9.833-17.358,17.45c-14.75,16.577-21.919,30.111-21.919,41.376c0,12.65,4.96,24.158,13.024,32.703H64.365
	v15.622h96.859V192.26L147.039,192.26L147.039,192.26z M112.331,114.177c3.679,3.418,8.92,8.522,14.141,14.388
	c11.419,12.833,17.968,24.128,17.968,30.99c0,0.49-0.016,0.975-0.037,1.458h-8.176v15.622h3.266
	c-5.688,9.001-15.719,14.995-27.131,14.995s-21.443-5.995-27.131-14.995h42.663v-15.622h-47.57c-0.022-0.484-0.036-0.97-0.036-1.458
	C80.287,147.669,98.256,127.154,112.331,114.177z"/>
<rect x="264.334" y="239.128" width="15.622" height="40.618"/>
<rect x="295.579" y="239.128" style="fill:#FFFFFF;" width="15.622" height="40.618"/>
<rect x="254.96" y="295.369" width="144.768" height="15.622"/>
<rect x="335.155" y="415.142" width="15.622" height="70.822"/>
<g>
	<rect x="360.151" y="448.47" style="fill:#FFFFFF;" width="15.622" height="15.622"/>
	<rect x="312.242" y="448.47" style="fill:#FFFFFF;" width="15.622" height="15.622"/>
	<rect x="438.264" y="326.614" style="fill:#FFFFFF;" width="15.622" height="47.909"/>
	<rect x="288.288" y="161.016" style="fill:#FFFFFF;" width="15.622" height="15.622"/>
</g>
<rect x="88.32" y="429.723" width="15.622" height="16.664"/>
<rect x="119.565" y="429.723" style="fill:#FFFFFF;" width="15.622" height="16.664"/>
<rect x="151.852" y="429.723" width="15.622" height="16.664"/>
<rect x="39.369" y="463.051" width="160.391" height="15.622"/>
<polygon points="487.213,295.368 407.018,295.368 407.018,310.991 414.308,310.991 414.308,351.609 407.018,351.609 
	407.018,326.613 391.395,326.613 391.395,351.609 374.731,351.609 374.731,326.613 359.109,326.613 359.109,351.609 
	342.445,351.609 342.445,326.613 326.822,326.613 326.822,351.609 311.2,351.609 311.2,326.613 295.578,326.613 295.578,351.609 
	279.955,351.609 279.955,326.613 264.333,326.613 264.333,351.609 232.046,351.609 232.046,367.232 429.931,367.232 
	429.931,310.991 463.259,310.991 463.259,485.963 478.881,485.963 478.881,310.991 487.213,310.991 "/>
<path d="M415.348,462.705c0-39.498-32.134-71.631-71.632-71.631s-71.632,32.133-71.632,71.631v0.344h-40.036v15.622h40.036v7.966
	h15.622v-23.933c0-30.884,25.125-56.009,56.01-56.009c30.884,0,56.01,25.125,56.01,56.009v23.933h15.622v-7.966h39.579v-15.622
	h-39.579V462.705z"/>
<polygon points="342.445,248.501 342.445,223.505 350.777,223.505 350.777,207.882 239.337,207.882 239.337,223.505 
	326.822,223.505 326.822,264.123 392.437,264.123 392.437,248.501 "/>
<path d="M340.081,183.928c16.668-13.127,27.401-33.469,27.401-56.282c0-16.623-11.421-37.602-33.945-62.352
	c-12.324-13.542-24.498-24.393-29.875-29.022l0.004-12.734h8.576V7.914h-8.57l0.003-7.908L288.052,0l-0.003,7.914h-8.093v15.622
	h8.088l-0.004,12.732c-5.376,4.628-17.552,15.48-29.878,29.024c-22.524,24.751-33.945,45.729-33.945,62.352
	c0,22.814,10.734,43.155,27.401,56.282h-27.904v15.622h144.768v-15.622H340.081z M295.849,50.146
	c17.995,15.745,51.171,49.025,55.523,72.595l-55.077-27.538l-53.839,20.191C251.174,92.68,279.657,64.315,295.849,50.146z
	 M244.185,149.267c-2.141-5.098-3.544-10.577-4.087-16.305l55.304-20.739l55.117,27.558c-0.955,4.306-2.398,8.43-4.284,12.303
	L296.1,127.016L244.185,149.267z M295.849,183.655c-17.582,0-33.289-8.15-43.566-20.862l43.313-18.563l41.821,20.91
	C327.16,176.501,312.326,183.655,295.849,183.655z"/>
<g>
</g>
<g>
</g>
<g>
</g>
<g>
</g>
<g>
</g>
<g>
</g>
<g>
</g>
<g>
</g>
<g>
</g>
<g>
</g>
<g>
</g>
<g>
</g>
<g>
</g>
<g>
</g>
<g>
</g>
</svg>
